:SAMPLES-PER-SECOND 30
:FULLY-SPECIFIED
:DEGREES
716
root  -62.793 39.6518 13.6895 -172.854 -63.1959 166.018
RightUpLeg  -19.3682 -0.53372 -10.7604
RightLeg  20.6836 7.44929 2.93327
RightFoot  -0.0400695 -1.11291 11.2148
RightToes  -9.31324e-010 0 -3.6325e-017
Spine  7.82823 1.19184 -4.4681
Spine1  4.52287 1.5587 -3.07119
HEad  -11.4425 6.7501 -5.66064
LeftShoulder1  -0.324213 4.34227 -32.5441
LeftArm  12.4272 7.22691 -43.9568
LeftForeArm  22.6454 -20.5099 -4.75835
LeftHand  -0.057525 6.18349 -2.69681
RightShoulder  -0.824993 -5.81574 29.0059
RightArm  15.5196 6.04528 49.8288
RightForeArm  12.6976 33.5941 6.74353
RightHand  -0.316108 6.64368 -3.38368
LeftUpLeg  0.422152 5.62718 -7.96322
LeftLeg  17.29 6.23337 0.732974
LeftFoot  -11.14 0.054148 7.37925
LeftToes  8.61288e-010 -5.99147e-011 2.1039e-011
717
root  -63.5677 39.6827 13.1707 -171.11 -65.4483 163.987
RightUpLeg  -17.3823 -1.47858 -11.1212
RightLeg  9.74906 8.91533 0.42057
RightFoot  0.744726 -1.11233 10.5486
RightToes  -9.31324e-010 0 -3.6325e-017
Spine  8.23992 1.28779 -3.96191
Spine1  4.20165 1.72107 -3.01131
HEad  -10.5689 2.88761 -5.87419
LeftShoulder1  -0.288908 4.24719 -32.6618
LeftArm  12.6411 7.10679 -42.52
LeftForeArm  17.5464 -22.4522 -4.1569
LeftHand  -0.0352261 5.60437 -1.57951
RightShoulder  -0.681321 -5.48033 27.7728
RightArm  16.4326 5.43877 50.8209
RightForeArm  14.4929 34.6346 6.91344
RightHand  -0.187267 6.54472 -2.16662
LeftUpLeg  2.9612 5.3901 -7.93465
LeftLeg  15.7462 4.23849 0.114157
LeftFoot  -11.6368 0.089551 7.47748
LeftToes  8.61288e-010 -5.99147e-011 2.1039e-011
718
root  -64.3524 39.6554 12.6089 -168.118 -67.5878 161.092
RightUpLeg  -16.3778 -7.07114 -9.74417
RightLeg  2.32592 14.89 -2.54361
RightFoot  2.11715 -1.22469 10.452
RightToes  -9.31324e-010 0 -3.6325e-017
Spine  7.54258 1.34652 -2.71653
Spine1  4.92104 2.2951 -4.69019
HEad  -10.2031 -1.30848 -5.92921
LeftShoulder1  -0.174331 3.96623 -31.6282
LeftArm  10.1141 5.88731 -41.979
LeftForeArm  17.111 -23.1225 -4.16674
LeftHand  -0.0436495 5.78663 -2.63052
RightShoulder  -0.818093 -5.781 29.3229
RightArm  18.1375 6.34495 50.4017
RightForeArm  14.3702 33.6338 6.65665
RightHand  -0.177653 6.60312 -2.06448
LeftUpLeg  4.77257 5.0031 -8.10144
LeftLeg  14.7959 2.24985 -0.194438
LeftFoot  -12.3767 0.141296 7.44103
LeftToes  8.61288e-010 -5.99147e-011 2.1039e-011
719
root  -65.2164 39.5418 11.9881 -165.433 -69.3379 158.342
RightUpLeg  -16.047 -8.95137 -9.70556
RightLeg  0.819169 17.574 -2.02597
RightFoot  3.14103 -1.44895 11.6629
RightToes  -9.31324e-010 0 -3.6325e-017
Spine  6.95667 1.61238 -1.30056
Spine1  5.22209 2.96245 -6.02306
HEad  -8.86894 -5.32199 -6.84877
LeftShoulder1  -0.173598 3.96606 -31.456
LeftArm  8.39727 5.13576 -40.9842
LeftForeArm  17.7372 -24.3745 -4.26954
LeftHand  -0.0321673 5.59476 -1.19256
RightShoulder  -0.816032 -5.76896 29.4051
RightArm  20.8986 6.91323 50.7278
RightForeArm  12.1183 30.7723 6.05292
RightHand  -0.18465 6.36621 -2.16525
LeftUpLeg  6.47107 4.76696 -8.02173
LeftLeg  14.8613 0.47168 -0.168312
LeftFoot  -13.7927 0.232369 6.95451
LeftToes  8.61288e-010 -5.99147e-011 2.1039e-011
720
root  -66.0199 39.5245 11.2866 -163.639 -71.3921 156.812
RightUpLeg  -16.6642 -8.40566 -9.17696
RightLeg  4.15721 19.1821 -0.487196
RightFoot  8.19891 -1.31828 8.00221
RightToes  -9.31324e-010 0 -3.6325e-017
Spine  6.21932 1.9343 -0.126573
Spine1  5.48058 3.28082 -5.68438
HEad  -6.93104 -9.5383 -8.03197
LeftShoulder1  -0.275186 4.22551 -31.9155
LeftArm  6.86648 4.29979 -39.7207
LeftForeArm  19.1291 -24.925 -4.3265
LeftHand  -0.0650022 6.3455 -1.3481
RightShoulder  -0.771914 -5.65824 29.1822
RightArm  24.1593 7.27726 51.5701
RightForeArm  10.118 26.2462 5.09
RightHand  -0.10093 6.67988 -1.31457
LeftUpLeg  8.09296 4.65931 -6.89974
LeftLeg  14.4315 -1.70123 -0.283902
LeftFoot  -14.6717 0.268847 6.21926
LeftToes  8.61288e-010 -5.99147e-011 2.1039e-011
721
root  -66.8637 39.4389 10.6026 -163.821 -73.235 156.75
RightUpLeg  -17.2857 -5.15687 -9.13265
RightLeg  9.68194 15.664 0.884781
RightFoot  11.0304 -0.950162 5.10836
RightToes  -9.31324e-010 0 -3.6325e-017
Spine  6.15062 2.15546 1.56502
Spine1  5.61586 3.4824 -5.33638
HEad  -5.54544 -12.9435 -10.2909
LeftShoulder1  -0.376556 4.46409 -33.1102
LeftArm  2.36956 4.70039 -38.5362
LeftForeArm  23.3415 -26.1531 -4.36748
LeftHand  -0.163011 8.74255 -3.6162
RightShoulder  -0.694033 -5.46516 28.7061
RightArm  27.2017 8.08954 52.4964
RightForeArm  9.17303 20.4001 4.86827
RightHand  -0.0408016 6.09884 -0.741793
LeftUpLeg  9.86107 3.78474 -5.54034
LeftLeg  14.9477 -2.70353 -0.132092
LeftFoot  -16.095 0.306084 5.06734
LeftToes  8.61288e-010 -5.99147e-011 2.1039e-011
722
root  -67.6684 39.3384 9.96924 -163.71 -76.1033 156.631
RightUpLeg  -17.9655 -2.89417 -9.52371
RightLeg  15.6225 10.4862 2.82054
RightFoot  8.16341 -0.486578 3.17496
RightToes  -9.31324e-010 0 -3.6325e-017
Spine  6.29001 1.67279 4.3124
Spine1  5.47242 3.26609 -6.19958
HEad  -4.16577 -16.2939 -12.1538
LeftShoulder1  -0.350589 4.39156 -33.3461
LeftArm  -0.283432 5.44649 -38.0223
LeftForeArm  21.9893 -26.6207 -4.54253
LeftHand  -0.0310374 6.06224 1.22551
RightShoulder  -0.674264 -5.41861 28.5207
RightArm  24.1455 8.63636 52.8551
RightForeArm  13.7976 14.4197 7.0389
RightHand  0.000890497 5.30638 -0.313835
LeftUpLeg  10.1644 0.632569 -4.26781
LeftLeg  17.5075 -2.32343 -0.0438517
LeftFoot  -17.4164 0.285802 3.39851
LeftToes  8.61288e-010 -5.99147e-011 2.1039e-011
723
root  -68.3975 39.3779 9.37022 -160.304 -79.2963 153.714
RightUpLeg  -17.7652 -5.22271 -8.91413
RightLeg  18.4711 9.16991 3.21317
RightFoot  6.00929 -0.333708 2.45428
RightToes  -9.31324e-010 0 -3.6325e-017
Spine  5.87529 1.21319 5.88825
Spine1  5.44609 2.79051 -5.67866
HEad  -2.91636 -19.9582 -13.765
LeftShoulder1  -0.367685 4.433 -33.4195
LeftArm  -1.29398 5.93276 -38.2549
LeftForeArm  17.9897 -25.603 -4.53383
LeftHand  -0.040682 4.89574 4.08121
RightShoulder  -0.701891 -5.48827 28.6935
RightArm  19.5107 8.42525 51.975
RightForeArm  18.8132 9.61097 8.42703
RightHand  -0.0179303 4.45454 -0.4863
LeftUpLeg  8.98427 -2.53312 -2.91651
LeftLeg  21.0462 -2.53076 -0.800573
LeftFoot  -17.1041 0.131204 0.560791
LeftToes  8.61288e-010 -5.99147e-011 2.1039e-011
724
root  -69.0046 39.4827 8.78245 -153.08 -83.1943 147.29
RightUpLeg  -17.3503 -7.79535 -7.81626
RightLeg  19.9374 7.59639 2.80559
RightFoot  4.72954 -0.148165 1.28155
RightToes  -9.31324e-010 0 -3.6325e-017
Spine  5.55283 0.74791 6.91139
Spine1  5.13237 2.08522 -3.57409
HEad  -1.73476 -23.7495 -15.1635
LeftShoulder1  -0.313461 4.30034 -33.2232
LeftArm  -1.52737 6.62698 -39.0094
LeftForeArm  18.6482 -25.0891 -4.38741
LeftHand  -0.000238392 7.24923 2.11241
RightShoulder  -0.727305 -5.55273 28.8368
RightArm  16.994 6.77666 50.2302
RightForeArm  20.75 7.12056 8.43115
RightHand  0.0292896 3.8342 0.0954392
LeftUpLeg  6.33015 -3.68578 -0.384396
LeftLeg  25.6163 -5.1131 -2.34804
LeftFoot  -15.6652 -0.00620023 -2.74925
LeftToes  8.61288e-010 -5.99147e-011 2.1039e-011
725
root  -69.522 39.6072 8.23663 -135.797 -86.0135 130.716
RightUpLeg  -16.7482 -10.4161 -6.89048
RightLeg  20.4711 6.93191 2.6367
RightFoot  3.68863 -0.0680329 0.711365
RightToes  -9.31324e-010 0 -3.6325e-017
Spine  5.6797 0.772215 8.00637
Spine1  4.44272 1.99649 -2.31883
HEad  -0.744732 -28.2705 -15.5477
LeftShoulder1  -0.277044 4.20216 -33.5247
LeftArm  -0.645309 6.99531 -39.7083
LeftForeArm  18.6569 -24.5098 -4.26196
LeftHand  -0.00685295 6.89521 2.06268
RightShoulder  -0.8138 -5.78291 29.0751
RightArm  16.0497 4.53084 47.7618
RightForeArm  20.4898 6.75013 8.06168
RightHand  0.0160482 3.1224 -0.00692054
LeftUpLeg  2.76336 -3.44409 1.91246
LeftLeg  31.0398 -6.11023 -3.60351
LeftFoot  -12.4418 0.0223253 -6.61523
LeftToes  8.61288e-010 -5.99147e-011 2.1039e-011
726
root  -69.9753 39.779 7.7174 -98.4902 -86.9657 93.9795
RightUpLeg  -16.0293 -12.6031 -6.72229
RightLeg  20.4195 6.56475 2.62615
RightFoot  2.85794 -0.0555096 0.601394
RightToes  -9.31324e-010 0 -3.6325e-017
Spine  6.12205 0.860955 8.35756
Spine1  3.71061 2.0733 -1.96993
HEad  -0.276781 -32.1975 -15.3176
LeftShoulder1  -0.198584 4.00766 -33.2876
LeftArm  -0.254485 8.23138 -40.4202
LeftForeArm  19.7373 -25.0875 -4.3293
LeftHand  -0.0286906 6.35566 0.956307
RightShoulder  -0.926724 -6.06748 29.5794
RightArm  16.1967 2.9064 45.3685
RightForeArm  19.3833 6.96468 7.97931
RightHand  0.0469897 3.30822 0.413143
LeftUpLeg  -0.612912 -1.69618 2.95921
LeftLeg  35.2382 -3.8613 -2.52992
LeftFoot  -7.40398 0.312048 -8.37208
LeftToes  8.61288e-010 -5.99147e-011 2.1039e-011
727
root  -70.367 39.9243 7.31148 -69.023 -86.5831 65.1042
RightUpLeg  -15.5745 -14.1105 -6.57605
RightLeg  20.2314 6.30756 2.72992
RightFoot  2.5077 -0.00923211 0.217677
RightToes  -9.31324e-010 0 -3.6325e-017
Spine  6.21191 0.678166 9.30027
Spine1  3.48942 2.06423 -2.57811
HEad  -0.381732 -35.1037 -14.3324
LeftShoulder1  -0.185007 3.97834 -32.8645
LeftArm  0.119824 9.91132 -40.6522
LeftForeArm  21.2476 -26.0393 -4.45436
LeftHand  -0.0390618 6.61012 -0.513685
RightShoulder  -0.866297 -5.89831 29.5785
RightArm  17.4404 1.70746 43.6085
RightForeArm  17.5449 7.7682 8.23191
RightHand  -0.0178353 3.98921 -0.488993
LeftUpLeg  -3.91464 2.17025 3.49722
LeftLeg  38.9927 1.35593 1.55693
LeftFoot  -4.03721 0.421309 -6.13126
LeftToes  8.61288e-010 -5.99147e-011 2.1039e-011
728
root  -70.6662 40.095 6.92906 -61.7389 -85.4766 58.4254
RightUpLeg  -15.3507 -14.536 -6.95008
RightLeg  19.8035 5.78661 2.61721
RightFoot  2.38123 0.00933403 0.0576455
RightToes  -9.31324e-010 0 -3.6325e-017
Spine  6.58761 0.725199 8.77624
Spine1  3.04087 2.05197 -2.50047
HEad  -0.493969 -37.5527 -12.8056
LeftShoulder1  -0.189639 3.98969 -32.852
LeftArm  0.0197477 11.5777 -40.8082
LeftForeArm  23.7545 -26.1922 -4.35355
LeftHand  -0.0298183 5.13516 -1.29363
RightShoulder  -0.748813 -5.60932 28.8813
RightArm  19.5179 0.839654 42.4907
RightForeArm  17.2295 9.15069 8.39299
RightHand  0.0134196 2.86521 -0.0315124
LeftUpLeg  -6.59511 6.70101 2.94804
LeftLeg  41.7692 4.78927 4.91771
LeftFoot  -4.09097 0.367864 -5.40793
LeftToes  8.61288e-010 -5.99147e-011 2.1039e-011
